<?xml version="1.0" encoding="UTF-8" standalone="no"?>
<!DOCTYPE svg PUBLIC "-//W3C//DTD SVG 1.1//EN"
 "http://www.w3.org/Graphics/SVG/1.1/DTD/svg11.dtd">
<!-- Generated by graphviz version 2.40.1 (20161225.0304)
 -->
<!-- Title: G Pages: 1 -->
<svg width="349pt" height="635pt"
 viewBox="0.00 0.00 348.58 635.00" xmlns="http://www.w3.org/2000/svg" xmlns:xlink="http://www.w3.org/1999/xlink">
<g id="graph0" class="graph" transform="scale(1 1) rotate(0) translate(4 631)">
<title>G</title>
<polygon fill="#ffffff" stroke="transparent" points="-4,4 -4,-631 344.5758,-631 344.5758,4 -4,4"/>
<g id="clust1" class="cluster">
<title>cluster_Global</title>
<path fill="none" stroke="#c0c0c0" d="M200.3575,-8C200.3575,-8 320.5758,-8 320.5758,-8 326.5758,-8 332.5758,-14 332.5758,-20 332.5758,-20 332.5758,-607 332.5758,-607 332.5758,-613 326.5758,-619 320.5758,-619 320.5758,-619 200.3575,-619 200.3575,-619 194.3575,-619 188.3575,-613 188.3575,-607 188.3575,-607 188.3575,-20 188.3575,-20 188.3575,-14 194.3575,-8 200.3575,-8"/>
<text text-anchor="middle" x="260.4667" y="-606.2" font-family="Times,serif" font-size="11.00" fill="#c0c0c0">Global</text>
</g>
<!-- \\Budget_model -->
<g id="node1" class="node">
<title>\\Budget_model</title>
<polygon fill="none" stroke="#000000" points="308.1798,-430 212.7535,-430 212.7535,-394 308.1798,-394 308.1798,-430"/>
<text text-anchor="middle" x="260.4667" y="-408.7" font-family="Courier,monospace" font-size="11.00" fill="#000000">Budget_model</text>
</g>
<!-- \\CI_Model -->
<g id="node12" class="node">
<title>\\CI_Model</title>
<ellipse fill="none" stroke="#000000" cx="62.1788" cy="-385" rx="48.8359" ry="18"/>
<text text-anchor="middle" x="62.1788" y="-380.8" font-family="Times,serif" font-size="14.00" fill="#c0c0c0">\CI_Model</text>
</g>
<!-- \\Budget_model&#45;&gt;\\CI_Model -->
<g id="edge1" class="edge">
<title>\\Budget_model&#45;&gt;\\CI_Model</title>
<path fill="none" stroke="#000000" d="M212.7194,-405.4985C184.3242,-401.632 148.1545,-396.7069 118.3858,-392.6535"/>
<polygon fill="none" stroke="#000000" points="118.5273,-389.1405 108.1465,-391.2592 117.5828,-396.0765 118.5273,-389.1405"/>
</g>
<!-- \\Inventory_model -->
<g id="node2" class="node">
<title>\\Inventory_model</title>
<polygon fill="none" stroke="#000000" points="317.9828,-376 202.9506,-376 202.9506,-340 317.9828,-340 317.9828,-376"/>
<text text-anchor="middle" x="260.4667" y="-354.7" font-family="Courier,monospace" font-size="11.00" fill="#000000">Inventory_model</text>
</g>
<!-- \\Inventory_model&#45;&gt;\\CI_Model -->
<g id="edge2" class="edge">
<title>\\Inventory_model&#45;&gt;\\CI_Model</title>
<path fill="none" stroke="#000000" d="M202.8472,-365.8458C176.2985,-369.4608 144.901,-373.7361 118.5119,-377.3294"/>
<polygon fill="none" stroke="#000000" points="117.7271,-373.9038 108.2908,-378.7211 118.6716,-380.8398 117.7271,-373.9038"/>
</g>
<!-- \\Customer_model -->
<g id="node3" class="node">
<title>\\Customer_model</title>
<polygon fill="none" stroke="#000000" points="314.8825,-322 206.0508,-322 206.0508,-286 314.8825,-286 314.8825,-322"/>
<text text-anchor="middle" x="260.4667" y="-300.7" font-family="Courier,monospace" font-size="11.00" fill="#000000">Customer_model</text>
</g>
<!-- \\Customer_model&#45;&gt;\\CI_Model -->
<g id="edge3" class="edge">
<title>\\Customer_model&#45;&gt;\\CI_Model</title>
<path fill="none" stroke="#000000" d="M211.0876,-322.1443C203.4543,-325.0485 195.678,-328.0649 188.3575,-331 159.6564,-342.5077 127.6292,-356.225 103.0236,-366.9544"/>
<polygon fill="none" stroke="#000000" points="101.4021,-363.8434 93.6424,-371.0571 104.2069,-370.2569 101.4021,-363.8434"/>
</g>
<!-- \\Main -->
<g id="node4" class="node">
<title>\\Main</title>
<polygon fill="none" stroke="#000000" points="287.4667,-160 233.4667,-160 233.4667,-124 287.4667,-124 287.4667,-160"/>
<text text-anchor="middle" x="260.4667" y="-138.7" font-family="Courier,monospace" font-size="11.00" fill="#000000">Main</text>
</g>
<!-- \\CI_Controller -->
<g id="node13" class="node">
<title>\\CI_Controller</title>
<ellipse fill="none" stroke="#000000" cx="62.1788" cy="-88" rx="62.3581" ry="18"/>
<text text-anchor="middle" x="62.1788" y="-83.8" font-family="Times,serif" font-size="14.00" fill="#c0c0c0">\CI_Controller</text>
</g>
<!-- \\Main&#45;&gt;\\CI_Controller -->
<g id="edge4" class="edge">
<title>\\Main&#45;&gt;\\CI_Controller</title>
<path fill="none" stroke="#000000" d="M233.3114,-134.6048C203.6148,-126.5175 155.2227,-113.3388 117.4621,-103.0554"/>
<polygon fill="none" stroke="#000000" points="118.1829,-99.6243 107.6146,-100.3736 116.3436,-106.3783 118.1829,-99.6243"/>
</g>
<!-- \\Vendor_model -->
<g id="node5" class="node">
<title>\\Vendor_model</title>
<polygon fill="none" stroke="#000000" points="308.1798,-268 212.7535,-268 212.7535,-232 308.1798,-232 308.1798,-268"/>
<text text-anchor="middle" x="260.4667" y="-246.7" font-family="Courier,monospace" font-size="11.00" fill="#000000">Vendor_model</text>
</g>
<!-- \\Vendor_model&#45;&gt;\\CI_Model -->
<g id="edge5" class="edge">
<title>\\Vendor_model&#45;&gt;\\CI_Model</title>
<path fill="none" stroke="#000000" d="M212.8215,-265.132C204.4294,-268.5498 195.956,-272.5163 188.3575,-277 148.6949,-300.4045 109.4091,-336.6428 85.468,-360.5914"/>
<polygon fill="none" stroke="#000000" points="82.7855,-358.3268 78.2531,-367.9032 87.7682,-363.2434 82.7855,-358.3268"/>
</g>
<!-- \\Transaction_model -->
<g id="node6" class="node">
<title>\\Transaction_model</title>
<polygon fill="none" stroke="#000000" points="324.6851,-214 196.2482,-214 196.2482,-178 324.6851,-178 324.6851,-214"/>
<text text-anchor="middle" x="260.4667" y="-192.7" font-family="Courier,monospace" font-size="11.00" fill="#000000">Transaction_model</text>
</g>
<!-- \\Transaction_model&#45;&gt;\\CI_Model -->
<g id="edge6" class="edge">
<title>\\Transaction_model&#45;&gt;\\CI_Model</title>
<path fill="none" stroke="#000000" d="M203.0284,-214.0891C197.8628,-216.7154 192.882,-219.6756 188.3575,-223 137.7235,-260.2034 97.0014,-322.9674 76.5435,-358.4619"/>
<polygon fill="none" stroke="#000000" points="73.429,-356.8592 71.5519,-367.2865 79.5218,-360.3057 73.429,-356.8592"/>
</g>
<!-- \\Inventory -->
<g id="node7" class="node">
<title>\\Inventory</title>
<polygon fill="none" stroke="#000000" points="298.3775,-106 222.5559,-106 222.5559,-70 298.3775,-70 298.3775,-106"/>
<text text-anchor="middle" x="260.4667" y="-84.7" font-family="Courier,monospace" font-size="11.00" fill="#000000">Inventory</text>
</g>
<!-- \\Inventory&#45;&gt;\\CI_Controller -->
<g id="edge7" class="edge">
<title>\\Inventory&#45;&gt;\\CI_Controller</title>
<path fill="none" stroke="#000000" d="M222.7035,-88C197.8763,-88 164.5828,-88 134.7537,-88"/>
<polygon fill="none" stroke="#000000" points="134.3669,-84.5001 124.3668,-88 134.3668,-91.5001 134.3669,-84.5001"/>
</g>
<!-- \\User_model -->
<g id="node8" class="node">
<title>\\User_model</title>
<polygon fill="none" stroke="#000000" points="301.4774,-592 219.4559,-592 219.4559,-556 301.4774,-556 301.4774,-592"/>
<text text-anchor="middle" x="260.4667" y="-570.7" font-family="Courier,monospace" font-size="11.00" fill="#000000">User_model</text>
</g>
<!-- \\User_model&#45;&gt;\\CI_Model -->
<g id="edge8" class="edge">
<title>\\User_model&#45;&gt;\\CI_Model</title>
<path fill="none" stroke="#000000" d="M219.184,-562.9587C208.5399,-558.9646 197.5142,-553.7279 188.3575,-547 137.7235,-509.7966 97.0014,-447.0326 76.5435,-411.5381"/>
<polygon fill="none" stroke="#000000" points="79.5218,-409.6943 71.5519,-402.7135 73.429,-413.1408 79.5218,-409.6943"/>
</g>
<!-- \\Role_model -->
<g id="node9" class="node">
<title>\\Role_model</title>
<polygon fill="none" stroke="#000000" points="301.4774,-538 219.4559,-538 219.4559,-502 301.4774,-502 301.4774,-538"/>
<text text-anchor="middle" x="260.4667" y="-516.7" font-family="Courier,monospace" font-size="11.00" fill="#000000">Role_model</text>
</g>
<!-- \\Role_model&#45;&gt;\\CI_Model -->
<g id="edge9" class="edge">
<title>\\Role_model&#45;&gt;\\CI_Model</title>
<path fill="none" stroke="#000000" d="M219.2739,-507.3993C208.8525,-503.4592 197.9132,-498.6387 188.3575,-493 148.6949,-469.5955 109.4091,-433.3572 85.468,-409.4086"/>
<polygon fill="none" stroke="#000000" points="87.7682,-406.7566 78.2531,-402.0968 82.7855,-411.6732 87.7682,-406.7566"/>
</g>
<!-- \\Project_model -->
<g id="node10" class="node">
<title>\\Project_model</title>
<polygon fill="none" stroke="#000000" points="311.2808,-484 209.6525,-484 209.6525,-448 311.2808,-448 311.2808,-484"/>
<text text-anchor="middle" x="260.4667" y="-462.7" font-family="Courier,monospace" font-size="11.00" fill="#000000">Project_model</text>
</g>
<!-- \\Project_model&#45;&gt;\\CI_Model -->
<g id="edge10" class="edge">
<title>\\Project_model&#45;&gt;\\CI_Model</title>
<path fill="none" stroke="#000000" d="M211.0876,-447.8557C203.4543,-444.9515 195.678,-441.9351 188.3575,-439 159.6564,-427.4923 127.6292,-413.775 103.0236,-403.0456"/>
<polygon fill="none" stroke="#000000" points="104.2069,-399.7431 93.6424,-398.9429 101.4021,-406.1566 104.2069,-399.7431"/>
</g>
<!-- \\User -->
<g id="node11" class="node">
<title>\\User</title>
<polygon fill="none" stroke="#000000" points="287.4667,-52 233.4667,-52 233.4667,-16 287.4667,-16 287.4667,-52"/>
<text text-anchor="middle" x="260.4667" y="-30.7" font-family="Courier,monospace" font-size="11.00" fill="#000000">User</text>
</g>
<!-- \\User&#45;&gt;\\CI_Controller -->
<g id="edge11" class="edge">
<title>\\User&#45;&gt;\\CI_Controller</title>
<path fill="none" stroke="#000000" d="M233.3114,-41.3952C203.6148,-49.4825 155.2227,-62.6612 117.4621,-72.9446"/>
<polygon fill="none" stroke="#000000" points="116.3436,-69.6217 107.6146,-75.6264 118.1829,-76.3757 116.3436,-69.6217"/>
</g>
</g>
</svg>
