<?xml version="1.0" encoding="UTF-8" standalone="no"?>
<!DOCTYPE svg PUBLIC "-//W3C//DTD SVG 1.1//EN"
 "http://www.w3.org/Graphics/SVG/1.1/DTD/svg11.dtd">
<!-- Generated by graphviz version 2.40.1 (20161225.0304)
 -->
<!-- Title: G Pages: 1 -->
<svg width="349pt" height="581pt"
 viewBox="0.00 0.00 348.58 581.00" xmlns="http://www.w3.org/2000/svg" xmlns:xlink="http://www.w3.org/1999/xlink">
<g id="graph0" class="graph" transform="scale(1 1) rotate(0) translate(4 577)">
<title>G</title>
<polygon fill="#ffffff" stroke="transparent" points="-4,4 -4,-577 344.5758,-577 344.5758,4 -4,4"/>
<g id="clust1" class="cluster">
<title>cluster_Global</title>
<path fill="none" stroke="#c0c0c0" d="M200.3575,-8C200.3575,-8 320.5758,-8 320.5758,-8 326.5758,-8 332.5758,-14 332.5758,-20 332.5758,-20 332.5758,-553 332.5758,-553 332.5758,-559 326.5758,-565 320.5758,-565 320.5758,-565 200.3575,-565 200.3575,-565 194.3575,-565 188.3575,-559 188.3575,-553 188.3575,-553 188.3575,-20 188.3575,-20 188.3575,-14 194.3575,-8 200.3575,-8"/>
<text text-anchor="middle" x="260.4667" y="-552.2" font-family="Times,serif" font-size="11.00" fill="#c0c0c0">Global</text>
</g>
<!-- \\Budget_model -->
<g id="node1" class="node">
<title>\\Budget_model</title>
<polygon fill="none" stroke="#000000" points="308.1798,-430 212.7535,-430 212.7535,-394 308.1798,-394 308.1798,-430"/>
<text text-anchor="middle" x="260.4667" y="-408.7" font-family="Courier,monospace" font-size="11.00" fill="#000000">Budget_model</text>
</g>
<!-- \\CI_Model -->
<g id="node11" class="node">
<title>\\CI_Model</title>
<ellipse fill="none" stroke="#000000" cx="62.1788" cy="-331" rx="48.8359" ry="18"/>
<text text-anchor="middle" x="62.1788" y="-326.8" font-family="Times,serif" font-size="14.00" fill="#c0c0c0">\CI_Model</text>
</g>
<!-- \\Budget_model&#45;&gt;\\CI_Model -->
<g id="edge1" class="edge">
<title>\\Budget_model&#45;&gt;\\CI_Model</title>
<path fill="none" stroke="#000000" d="M212.6379,-394.4448C204.5108,-391.3609 196.1743,-388.1341 188.3575,-385 159.6564,-373.4923 127.6292,-359.775 103.0236,-349.0456"/>
<polygon fill="none" stroke="#000000" points="104.2069,-345.7431 93.6424,-344.9429 101.4021,-352.1566 104.2069,-345.7431"/>
</g>
<!-- \\Inventory_model -->
<g id="node2" class="node">
<title>\\Inventory_model</title>
<polygon fill="none" stroke="#000000" points="317.9828,-376 202.9506,-376 202.9506,-340 317.9828,-340 317.9828,-376"/>
<text text-anchor="middle" x="260.4667" y="-354.7" font-family="Courier,monospace" font-size="11.00" fill="#000000">Inventory_model</text>
</g>
<!-- \\Inventory_model&#45;&gt;\\CI_Model -->
<g id="edge2" class="edge">
<title>\\Inventory_model&#45;&gt;\\CI_Model</title>
<path fill="none" stroke="#000000" d="M202.8472,-350.1542C176.2985,-346.5392 144.901,-342.2639 118.5119,-338.6706"/>
<polygon fill="none" stroke="#000000" points="118.6716,-335.1602 108.2908,-337.2789 117.7271,-342.0962 118.6716,-335.1602"/>
</g>
<!-- \\Customer_model -->
<g id="node3" class="node">
<title>\\Customer_model</title>
<polygon fill="none" stroke="#000000" points="314.8825,-322 206.0508,-322 206.0508,-286 314.8825,-286 314.8825,-322"/>
<text text-anchor="middle" x="260.4667" y="-300.7" font-family="Courier,monospace" font-size="11.00" fill="#000000">Customer_model</text>
</g>
<!-- \\Customer_model&#45;&gt;\\CI_Model -->
<g id="edge3" class="edge">
<title>\\Customer_model&#45;&gt;\\CI_Model</title>
<path fill="none" stroke="#000000" d="M206.0214,-311.4136C178.7757,-315.1235 145.8341,-319.609 118.3534,-323.3509"/>
<polygon fill="none" stroke="#000000" points="117.5482,-319.9282 108.1119,-324.7455 118.4927,-326.8642 117.5482,-319.9282"/>
</g>
<!-- \\Main -->
<g id="node4" class="node">
<title>\\Main</title>
<polygon fill="none" stroke="#000000" points="287.4667,-52 233.4667,-52 233.4667,-16 287.4667,-16 287.4667,-52"/>
<text text-anchor="middle" x="260.4667" y="-30.7" font-family="Courier,monospace" font-size="11.00" fill="#000000">Main</text>
</g>
<!-- \\CI_Controller -->
<g id="node12" class="node">
<title>\\CI_Controller</title>
<ellipse fill="none" stroke="#000000" cx="62.1788" cy="-61" rx="62.3581" ry="18"/>
<text text-anchor="middle" x="62.1788" y="-56.8" font-family="Times,serif" font-size="14.00" fill="#c0c0c0">\CI_Controller</text>
</g>
<!-- \\Main&#45;&gt;\\CI_Controller -->
<g id="edge4" class="edge">
<title>\\Main&#45;&gt;\\CI_Controller</title>
<path fill="none" stroke="#000000" d="M233.3114,-37.6976C206.5706,-41.3388 164.6707,-47.0441 129.0244,-51.8979"/>
<polygon fill="none" stroke="#000000" points="128.1079,-48.4903 118.6716,-53.3076 129.0524,-55.4263 128.1079,-48.4903"/>
</g>
<!-- \\Vendor_model -->
<g id="node5" class="node">
<title>\\Vendor_model</title>
<polygon fill="none" stroke="#000000" points="308.1798,-268 212.7535,-268 212.7535,-232 308.1798,-232 308.1798,-268"/>
<text text-anchor="middle" x="260.4667" y="-246.7" font-family="Courier,monospace" font-size="11.00" fill="#000000">Vendor_model</text>
</g>
<!-- \\Vendor_model&#45;&gt;\\CI_Model -->
<g id="edge5" class="edge">
<title>\\Vendor_model&#45;&gt;\\CI_Model</title>
<path fill="none" stroke="#000000" d="M212.6379,-267.5552C204.5108,-270.6391 196.1743,-273.8659 188.3575,-277 159.6564,-288.5077 127.6292,-302.225 103.0236,-312.9544"/>
<polygon fill="none" stroke="#000000" points="101.4021,-309.8434 93.6424,-317.0571 104.2069,-316.2569 101.4021,-309.8434"/>
</g>
<!-- \\Transaction_model -->
<g id="node6" class="node">
<title>\\Transaction_model</title>
<polygon fill="none" stroke="#000000" points="324.6851,-214 196.2482,-214 196.2482,-178 324.6851,-178 324.6851,-214"/>
<text text-anchor="middle" x="260.4667" y="-192.7" font-family="Courier,monospace" font-size="11.00" fill="#000000">Transaction_model</text>
</g>
<!-- \\Transaction_model&#45;&gt;\\CI_Model -->
<g id="edge6" class="edge">
<title>\\Transaction_model&#45;&gt;\\CI_Model</title>
<path fill="none" stroke="#000000" d="M205.9565,-214.0502C199.8726,-216.7518 193.8837,-219.7391 188.3575,-223 148.6949,-246.4045 109.4091,-282.6428 85.468,-306.5914"/>
<polygon fill="none" stroke="#000000" points="82.7855,-304.3268 78.2531,-313.9032 87.7682,-309.2434 82.7855,-304.3268"/>
</g>
<!-- \\Inventory -->
<g id="node7" class="node">
<title>\\Inventory</title>
<polygon fill="none" stroke="#000000" points="298.3775,-106 222.5559,-106 222.5559,-70 298.3775,-70 298.3775,-106"/>
<text text-anchor="middle" x="260.4667" y="-84.7" font-family="Courier,monospace" font-size="11.00" fill="#000000">Inventory</text>
</g>
<!-- \\Inventory&#45;&gt;\\CI_Controller -->
<g id="edge7" class="edge">
<title>\\Inventory&#45;&gt;\\CI_Controller</title>
<path fill="none" stroke="#000000" d="M222.7035,-82.858C196.1386,-79.2407 159.8808,-74.3037 128.5453,-70.0368"/>
<polygon fill="none" stroke="#000000" points="128.9437,-66.5589 118.5629,-68.6776 127.9992,-73.4949 128.9437,-66.5589"/>
</g>
<!-- \\User_model -->
<g id="node8" class="node">
<title>\\User_model</title>
<polygon fill="none" stroke="#000000" points="301.4774,-160 219.4559,-160 219.4559,-124 301.4774,-124 301.4774,-160"/>
<text text-anchor="middle" x="260.4667" y="-138.7" font-family="Courier,monospace" font-size="11.00" fill="#000000">User_model</text>
</g>
<!-- \\User_model&#45;&gt;\\CI_Model -->
<g id="edge8" class="edge">
<title>\\User_model&#45;&gt;\\CI_Model</title>
<path fill="none" stroke="#000000" d="M219.184,-153.0413C208.5399,-157.0354 197.5142,-162.2721 188.3575,-169 137.7235,-206.2034 97.0014,-268.9674 76.5435,-304.4619"/>
<polygon fill="none" stroke="#000000" points="73.429,-302.8592 71.5519,-313.2865 79.5218,-306.3057 73.429,-302.8592"/>
</g>
<!-- \\Role_model -->
<g id="node9" class="node">
<title>\\Role_model</title>
<polygon fill="none" stroke="#000000" points="301.4774,-538 219.4559,-538 219.4559,-502 301.4774,-502 301.4774,-538"/>
<text text-anchor="middle" x="260.4667" y="-516.7" font-family="Courier,monospace" font-size="11.00" fill="#000000">Role_model</text>
</g>
<!-- \\Role_model&#45;&gt;\\CI_Model -->
<g id="edge9" class="edge">
<title>\\Role_model&#45;&gt;\\CI_Model</title>
<path fill="none" stroke="#000000" d="M219.184,-508.9587C208.5399,-504.9646 197.5142,-499.7279 188.3575,-493 137.7235,-455.7966 97.0014,-393.0326 76.5435,-357.5381"/>
<polygon fill="none" stroke="#000000" points="79.5218,-355.6943 71.5519,-348.7135 73.429,-359.1408 79.5218,-355.6943"/>
</g>
<!-- \\Project_model -->
<g id="node10" class="node">
<title>\\Project_model</title>
<polygon fill="none" stroke="#000000" points="311.2808,-484 209.6525,-484 209.6525,-448 311.2808,-448 311.2808,-484"/>
<text text-anchor="middle" x="260.4667" y="-462.7" font-family="Courier,monospace" font-size="11.00" fill="#000000">Project_model</text>
</g>
<!-- \\Project_model&#45;&gt;\\CI_Model -->
<g id="edge10" class="edge">
<title>\\Project_model&#45;&gt;\\CI_Model</title>
<path fill="none" stroke="#000000" d="M209.3863,-449.4393C202.1347,-446.3588 194.9198,-442.8723 188.3575,-439 148.6949,-415.5955 109.4091,-379.3572 85.468,-355.4086"/>
<polygon fill="none" stroke="#000000" points="87.7682,-352.7566 78.2531,-348.0968 82.7855,-357.6732 87.7682,-352.7566"/>
</g>
</g>
</svg>
